<svg
  xmlns="http://www.w3.org/2000/svg"
  viewBox="0 0 24 24"
>
  <path fill="none" stroke-linejoin="round" stroke-linecap="round" stroke-width="2" stroke="currentColor" d="M15 12a3 3 0 11-6 0 3 3 0 016 0z"></path>
  <path fill="none" stroke-linejoin="round" stroke-linecap="round" stroke-width="2" stroke="currentColor" d="M19.4 15a1.645 1.645 0 00.331 1.82l.06.06a1.995 1.995 0 010 2.83h0a1.995 1.995 0 01-2.83 0l-.06-.06a1.644 1.644 0 00-1.831-.325l.01-.004a1.654 1.654 0 00-1 1.51v.17a2 2 0 01-2 2v0a2 2 0 01-2-2v0-.09a1.651 1.651 0 00-1.069-1.506L9 19.401a1.645 1.645 0 00-1.82.331l-.06.06a1.995 1.995 0 01-2.83 0h0a1.995 1.995 0 010-2.83l.06-.06a1.644 1.644 0 00.325-1.831l.004.01a1.654 1.654 0 00-1.51-1h-.17a2 2 0 01-2-2v0a2 2 0 012-2v0h.09a1.651 1.651 0 001.506-1.069l.004-.011a1.645 1.645 0 00-.331-1.82l-.06-.06a1.995 1.995 0 010-2.83h0a1.995 1.995 0 012.83 0l.06.06a1.644 1.644 0 001.831.325l-.01.004h.08a1.654 1.654 0 001-1.51V3a2 2 0 012-2v0a2 2 0 012 2v.09c.003.674.409 1.252.989 1.506l.011.004a1.645 1.645 0 001.82-.331l.06-.06a1.995 1.995 0 012.83 0h0a1.995 1.995 0 010 2.83l-.06.06a1.644 1.644 0 00-.325 1.831l-.004-.01V9c.258.591.836.997 1.51 1H21a2 2 0 012 2v0a2 2 0 01-2 2v0h-.09a1.651 1.651 0 00-1.506.989L19.4 15z"></path>
</svg>